<?xml version="1.0" encoding="iso-8859-1"?>
<!-- Generator: Adobe Illustrator 16.0.0, SVG Export Plug-In . SVG Version: 6.00 Build 0)  -->
<!DOCTYPE svg PUBLIC "-//W3C//DTD SVG 1.1//EN" "http://www.w3.org/Graphics/SVG/1.1/DTD/svg11.dtd">
<svg version="1.1" id="Capa_1" xmlns="http://www.w3.org/2000/svg" xmlns:xlink="http://www.w3.org/1999/xlink" x="0px" y="0px"
	 width="600.619px" height="600.619px" viewBox="0 0 600.619 600.619" style="enable-background:new 0 0 600.619 600.619;"
	 xml:space="preserve">
<g>
	<g>
		<path d="M455.758,190.416c-35.129,0-63.707,28.578-63.707,63.706c0,35.128,28.578,63.707,63.707,63.707
			c35.127,0,63.705-28.578,63.705-63.707C519.463,218.994,490.885,190.416,455.758,190.416z M455.758,274.988
			c-11.525,0-20.867-9.343-20.867-20.867s9.342-20.866,20.867-20.866c11.523,0,20.865,9.342,20.865,20.866
			S467.281,274.988,455.758,274.988z"/>
		<path d="M455.758,318.328c-35.404,0-64.207-28.803-64.207-64.207c0-35.403,28.803-64.206,64.207-64.206
			c35.402,0,64.205,28.803,64.205,64.206C519.963,289.525,491.16,318.328,455.758,318.328z M455.758,190.916
			c-34.853,0-63.207,28.354-63.207,63.206s28.354,63.207,63.207,63.207c34.852,0,63.205-28.354,63.205-63.207
			S490.609,190.916,455.758,190.916z M455.758,275.488c-11.782,0-21.367-9.585-21.367-21.367c0-11.781,9.585-21.366,21.367-21.366
			c11.781,0,21.365,9.585,21.365,21.366C477.123,265.903,467.539,275.488,455.758,275.488z M455.758,233.755
			c-11.23,0-20.367,9.136-20.367,20.366c0,11.23,9.137,20.367,20.367,20.367c11.229,0,20.365-9.136,20.365-20.367
			C476.123,242.892,466.987,233.755,455.758,233.755z"/>
	</g>
	<g>
		<path d="M300.309,190.416c-35.127,0-63.706,28.578-63.706,63.706c0,35.128,28.579,63.707,63.706,63.707
			c35.128,0,63.707-28.578,63.707-63.707C364.016,218.994,335.438,190.416,300.309,190.416z M300.309,274.988
			c-11.524,0-20.866-9.343-20.866-20.867s9.342-20.866,20.866-20.866c11.525,0,20.867,9.342,20.867,20.866
			S311.834,274.988,300.309,274.988z"/>
		<path d="M300.309,318.328c-35.403,0-64.206-28.803-64.206-64.207c0-35.403,28.803-64.206,64.206-64.206
			c35.404,0,64.207,28.803,64.207,64.206C364.516,289.525,335.713,318.328,300.309,318.328z M300.309,190.916
			c-34.852,0-63.206,28.354-63.206,63.206s28.354,63.207,63.206,63.207s63.207-28.354,63.207-63.207
			S335.161,190.916,300.309,190.916z M300.309,275.488c-11.781,0-21.366-9.585-21.366-21.367c0-11.781,9.585-21.366,21.366-21.366
			c11.782,0,21.367,9.585,21.367,21.366C321.676,265.903,312.091,275.488,300.309,275.488z M300.309,233.755
			c-11.23,0-20.366,9.136-20.366,20.366c0,11.23,9.136,20.367,20.366,20.367s20.367-9.136,20.367-20.367
			C320.676,242.892,311.539,233.755,300.309,233.755z"/>
	</g>
	<g>
		<path d="M144.861,190.416c-35.127,0-63.706,28.578-63.706,63.706c0,35.128,28.579,63.707,63.706,63.707
			c35.128,0,63.707-28.578,63.707-63.707C208.567,218.994,179.989,190.416,144.861,190.416z M144.861,274.988
			c-11.524,0-20.866-9.343-20.866-20.867s9.342-20.866,20.866-20.866c11.524,0,20.866,9.342,20.866,20.866
			S156.385,274.988,144.861,274.988z"/>
		<path d="M144.861,318.328c-35.403,0-64.206-28.803-64.206-64.207c0-35.403,28.803-64.206,64.206-64.206
			c35.404,0,64.207,28.803,64.207,64.206C209.067,289.525,180.265,318.328,144.861,318.328z M144.861,190.916
			c-34.852,0-63.206,28.354-63.206,63.206s28.354,63.207,63.206,63.207s63.207-28.354,63.207-63.207
			S179.713,190.916,144.861,190.916z M144.861,275.488c-11.781,0-21.366-9.585-21.366-21.367c0-11.781,9.584-21.366,21.366-21.366
			s21.366,9.585,21.366,21.366C166.227,265.903,156.642,275.488,144.861,275.488z M144.861,233.755
			c-11.229,0-20.366,9.136-20.366,20.366c0,11.23,9.136,20.367,20.366,20.367c11.23,0,20.366-9.136,20.366-20.367
			C165.227,242.892,156.091,233.755,144.861,233.755z"/>
	</g>
	<g>
		<path d="M600.117,63.846c0-32.058-26.08-58.14-58.139-58.14H58.64c-32.059,0-58.14,26.082-58.14,58.14V424.84
			c0,31.556,25.271,57.32,56.636,58.121l0.139,53.936c0.021,8.118,1.679,15.971,4.928,23.34c3.092,7.013,7.483,13.259,13.048,18.562
			c10.903,10.391,25.18,16.114,40.198,16.114c10.843,0,21.471-3.056,30.737-8.835L311.471,482.98h230.508
			c32.059,0,58.141-26.081,58.141-58.14V63.846H600.117z M557.277,424.84c0,8.449-6.85,15.3-15.299,15.3H303.586
			c-2.863,0-5.668,0.803-8.097,2.318L123.512,549.729c-2.582,1.61-5.357,2.343-8.063,2.343c-7.958,0-15.311-6.335-15.334-15.285
			l-0.208-81.386c-0.021-8.435-6.866-15.261-15.3-15.261H58.64c-8.45,0-15.3-6.851-15.3-15.301V63.846c0-8.45,6.851-15.3,15.3-15.3
			h483.338c8.449,0,15.301,6.85,15.301,15.3V424.84H557.277L557.277,424.84z"/>
		<path d="M115.449,595.413c-15.147,0-29.545-5.771-40.542-16.252c-5.614-5.351-10.042-11.649-13.161-18.723
			c-3.277-7.434-4.95-15.354-4.97-23.541l-0.137-53.451c-15.138-0.51-29.304-6.771-39.939-17.663C5.93,454.755,0,440.214,0,424.84
			V63.846c0-32.334,26.306-58.64,58.64-58.64h483.338c32.333,0,58.639,26.306,58.639,58.64l0.002,360.995
			c0,32.334-26.306,58.64-58.641,58.64H311.614L146.45,586.502C137.104,592.332,126.384,595.413,115.449,595.413z M58.64,6.206
			C26.857,6.206,1,32.063,1,63.846V424.84c0,15.111,5.829,29.404,16.414,40.244c10.566,10.821,24.677,16.993,39.735,17.377
			l0.486,0.013l0.14,54.422c0.021,8.048,1.664,15.833,4.885,23.139c3.066,6.953,7.418,13.145,12.936,18.402
			c10.811,10.303,24.964,15.977,39.853,15.977c10.748,0,21.285-3.029,30.472-8.759L311.327,482.48h230.651
			c31.783,0,57.641-25.857,57.641-57.64V63.846c-0.002-31.783-25.859-57.64-57.641-57.64H58.64z M115.449,552.572
			c-8.708,0-15.812-7.081-15.834-15.784l-0.208-81.386c-0.021-8.14-6.66-14.762-14.8-14.762H58.64c-8.712,0-15.8-7.088-15.8-15.801
			V63.846c0-8.712,7.088-15.8,15.8-15.8h483.338c8.713,0,15.801,7.088,15.801,15.8V424.84c-0.002,8.712-7.09,15.8-15.801,15.8
			H303.586c-2.772,0-5.481,0.775-7.833,2.242L123.777,550.153C121.24,551.736,118.36,552.572,115.449,552.572z M58.64,49.046
			c-8.161,0-14.8,6.639-14.8,14.8V424.84c0,8.161,6.64,14.801,14.8,14.801h25.966c8.69,0,15.778,7.069,15.8,15.76l0.208,81.386
			c0.021,8.153,6.676,14.786,14.834,14.786c2.724,0,5.42-0.784,7.798-2.267l171.977-107.271c2.51-1.566,5.402-2.395,8.362-2.395
			h238.393c8.16,0,14.799-6.639,14.799-14.8l0.002-360.994c0-8.161-6.64-14.8-14.801-14.8H58.64z"/>
	</g>
</g>
<g>
</g>
<g>
</g>
<g>
</g>
<g>
</g>
<g>
</g>
<g>
</g>
<g>
</g>
<g>
</g>
<g>
</g>
<g>
</g>
<g>
</g>
<g>
</g>
<g>
</g>
<g>
</g>
<g>
</g>
</svg>
